<?xml version="1.0" standalone="no"?> <!DOCTYPE svg PUBLIC "-//W3C//DTD SVG 1.0//EN" "http://www.w3.org/TR/2001/REC-SVG-20010904/DTD/svg10.dtd" > <svg xmlns="http://www.w3.org/2000/svg" width="100%" height="100%">
<defs >
<font horiz-adv-x="476" ><font-face
    font-family="DS-Digital"
    units-per-em="1100"
    panose-1="0 0 0 0 0 0 0 0 0 0"
    ascent="900"
    descent="-200"
    alphabetic="0" />
<missing-glyph horiz-adv-x="550" d="M34 0V900H516V0H34ZM482 34V866H68V34H482Z" />
<glyph unicode=" " glyph-name="space" horiz-adv-x="260" />
<glyph unicode="!" glyph-name="exclam" horiz-adv-x="287" d="M181 307V14L106 89V289L153 336L181 307ZM106 411V625L181 700V392L153 364L106 411ZM181 -14H106V-89H181V-14Z" />
<glyph unicode="&quot;" glyph-name="quotedbl" horiz-adv-x="306" d="M135 569L97 532L60 569V700H135V569ZM247 569L209 532L172 569V700H247V569Z" />
<glyph unicode="#" glyph-name="numbersign" horiz-adv-x="558" d="M218 315L181 278L143 315V385L181 422L218 385V315ZM316 263L279 226H232L195 263L232 300H279L316 263ZM167 263L129 226H50L13 263L50 300H129L167 263ZM218 96L181 58L143 96V212L181 249L218
212V96ZM367 315L330 278L293 315V385L330 422L367 385V350V315ZM498 263L461 226H381L344 263L381 300H461L498 263ZM367 96L330 58L293 96V212L330 249L367 212V96ZM218 487L181 450L143 487V604L181 642L218 604V487ZM316 436L279 399H232L195 436L232 473H279L316
436ZM167 436L129 399H50L13 436L50 473H129L167 436ZM367 487L330 450L293 487V604L330 642L367 604V487ZM498 436L461 399H381L344 436L381 473H461L498 436Z" />
<glyph unicode="$" glyph-name="dollar" horiz-adv-x="539" d="M479 663L442 625H148L111 663L148 700H442L479 663ZM479 89L442 51L405 89V289L452 336L479 307V89ZM135 411L88 364L60 392V611L97 649L135 611V411ZM97 0L60 37L97 75H391L428 37L391 0H97ZM400
387L438 350L400 313H139L102 350L139 387H400ZM232 812L269 849L307 812V718H232V812ZM232 -18H307V-112L269 -149L232 -112V-18Z" />
<glyph unicode="%" glyph-name="percent" horiz-adv-x="665" d="M265 670L228 632H148L111 670L148 707H228L265 670ZM265 427L228 390H148L111 427L148 465H228L265 427ZM60 479L97 443L135 479V618L97 656L60 618V479ZM241 479V618L279 656L316 618V479L279
443L241 479ZM554 280L517 242H438L400 280L438 317H517L554 280ZM554 37L517 0H438L400 37L438 75H517L554 37ZM349 89L386 53L424 89V228L386 266L349 228V89ZM531 89V228L568 266L605 228V89L568 53L531 89ZM353 320L172 4L144 106L280 340L343 358L353 320ZM340
446L475 680L578 707L395 393L357 382L340 446Z" />
<glyph unicode="&amp;" glyph-name="ampersand" horiz-adv-x="539" d="M428 663L391 625H148L111 663L148 700H391L428 663ZM479 392L452 364L405 411V480L442 518L479 480V392ZM479 89L442 51L405 89V289L452 336L479 307V89ZM438 350L400 313H139L102 350L139
387H400L438 350ZM135 411L88 364L60 392V611L97 649L135 611V411ZM428 37L391 0H148L111 37L148 75H391L428 37ZM135 89L97 51L60 89V307L88 336L135 289V89ZM503 313L465 350L503 387L540 350L503 313Z" />
<glyph unicode="&apos;" glyph-name="quotesingle" horiz-adv-x="194" d="M135 569L97 532L60 569V700H135V569Z" />
<glyph unicode="(" glyph-name="parenleft" horiz-adv-x="353" d="M293 700L218 625H148L111 663L148 700H293ZM135 411L88 364L60 392V611L97 649L135 611V411ZM135 89L97 51L60 89V307L88 336L135 289V89ZM293 0H148L111 37L148 75H218L293 0Z" />
<glyph unicode=")" glyph-name="parenright" horiz-adv-x="353" d="M293 89L255 51L218 89V289L265 336L293 307V89ZM293 392L265 364L218 411V611L255 649L293 611V392ZM241 663L204 625H135L60 700H204L241 663ZM241 37L204 0H60L135 75H204L241 37Z" />
<glyph unicode="*" glyph-name="asterisk" horiz-adv-x="435" d="M74 558L60 609L111 623L160 595L201 529H126L74 558ZM324 413L375 426L361 479L309 511H234L274 444L324 413ZM254 373L217 336L180 373V430L217 499L254 433V373ZM254 604L217 537L180 604V663L217
700L254 663V604ZM111 413L60 426L74 478L126 507H201L160 439L111 413ZM309 531H234L274 597L324 623L375 609L361 558L309 531Z" />
<glyph unicode="+" glyph-name="plus" horiz-adv-x="455" d="M265 401L228 364L190 401V480L228 518L265 480V401ZM395 350L358 313H279L241 350L279 387H358L395 350ZM214 350L176 313H97L60 350L97 387H176L214 350ZM265 219L228 182L190 219V299L228 336L265 299V219Z" />
<glyph unicode="," glyph-name="comma" horiz-adv-x="194" d="M135 -79L97 -116L60 -79V75H135V-79Z" />
<glyph unicode="-" glyph-name="hyphen" horiz-adv-x="455" d="M358 387L395 350L358 313H97L60 350L97 387H358Z" />
<glyph unicode="." glyph-name="period" horiz-adv-x="194" d="M60 0V75H135V0H60Z" />
<glyph unicode="/" glyph-name="slash" horiz-adv-x="506" d="M246 320L64 4L36 106L172 340L235 358L246 320ZM232 446L367 680L470 707L287 393L249 382L232 446Z" />
<glyph unicode="0" glyph-name="zero" horiz-adv-x="539" d="M479 392L452 364L405 411V611L479 686V392ZM465 700L391 625H148L74 700H465ZM135 411L88 364L60 392V686L135 611V411ZM479 14L405 89V289L452 336L479 307V14ZM465 0H74L148 75H391L465 0ZM135 89L60
14V307L88 336L135 289V89Z" />
<glyph unicode="1" glyph-name="one" horiz-adv-x="287" d="M181 307V14L106 89V289L153 336L181 307ZM106 411V611L181 686V392L153 364L106 411Z" />
<glyph unicode="2" glyph-name="two" horiz-adv-x="539" d="M465 700L391 625H148L74 700H465ZM465 0H74L148 75H391L465 0ZM135 289V89L60 14V307L88 336L135 289ZM405 411V611L479 686V392L452 364L405 411ZM400 387L438 350L400 313H139L102 350L139 387H400Z" />
<glyph unicode="3" glyph-name="three" horiz-adv-x="539" d="M465 700L391 625H148L74 700H465ZM465 0H74L148 75H391L465 0ZM479 307V14L405 89V289L452 336L479 307ZM405 411V611L479 686V392L452 364L405 411ZM400 387L438 350L400 313H139L102 350L139 387H400Z" />
<glyph unicode="4" glyph-name="four" horiz-adv-x="539" d="M60 392V686L135 611V411L88 364L60 392ZM479 307V14L405 89V289L452 336L479 307ZM405 411V611L479 686V392L452 364L405 411ZM400 387L438 350L400 313H139L102 350L139 387H400Z" />
<glyph unicode="5" glyph-name="five" horiz-adv-x="539" d="M465 700L391 625H148L74 700H465ZM465 0H74L148 75H391L465 0ZM60 392V686L135 611V411L88 364L60 392ZM479 307V14L405 89V289L452 336L479 307ZM400 387L438 350L400 313H139L102 350L139 387H400Z" />
<glyph unicode="6" glyph-name="six" horiz-adv-x="539" d="M465 700L391 625H148L74 700H465ZM465 0H74L148 75H391L465 0ZM135 289V89L60 14V307L88 336L135 289ZM60 392V686L135 611V411L88 364L60 392ZM479 307V14L405 89V289L452 336L479 307ZM400 387L438
350L400 313H139L102 350L139 387H400Z" />
<glyph unicode="7" glyph-name="seven" horiz-adv-x="539" d="M465 700L391 625H148L74 700H465ZM479 307V14L405 89V289L452 336L479 307ZM405 411V611L479 686V392L452 364L405 411Z" />
<glyph unicode="8" glyph-name="eight" horiz-adv-x="539" d="M465 700L391 625H148L74 700H465ZM465 0H74L148 75H391L465 0ZM135 289V89L60 14V307L88 336L135 289ZM60 392V686L135 611V411L88 364L60 392ZM479 307V14L405 89V289L452 336L479 307ZM405 411V611L479
686V392L452 364L405 411ZM400 387L438 350L400 313H139L102 350L139 387H400Z" />
<glyph unicode="9" glyph-name="nine" horiz-adv-x="539" d="M465 700L391 625H148L74 700H465ZM465 0H74L148 75H391L465 0ZM60 392V686L135 611V411L88 364L60 392ZM479 307V14L405 89V289L452 336L479 307ZM405 411V611L479 686V392L452 364L405 411ZM400 387L438
350L400 313H139L102 350L139 387H400Z" />
<glyph unicode=":" glyph-name="colon" horiz-adv-x="241" d="M83 0V75H158V0H83ZM83 508V583H158V508H83Z" />
<glyph unicode=";" glyph-name="semicolon" horiz-adv-x="241" d="M158 -79L121 -116L83 -79V75H158V-79ZM83 508V583H158V508H83Z" />
<glyph unicode="&lt;" glyph-name="less" horiz-adv-x="396" d="M337 531L165 360H60L284 584H337V531ZM337 116H284L60 339H165L337 168V116Z" />
<glyph unicode="=" glyph-name="equal" horiz-adv-x="455" d="M358 462L395 425L358 387H97L60 425L97 462H358ZM358 313L395 275L358 238H97L60 275L97 313H358Z" />
<glyph unicode="&gt;" glyph-name="greater" horiz-adv-x="396" d="M337 354H231L60 526V579H113L337 354ZM337 334L113 110H60V163L231 334H337Z" />
<glyph unicode="?" glyph-name="question" horiz-adv-x="539" d="M479 392L452 364L405 411V611L442 649L479 611V392ZM428 663L391 625H135L60 700H391L428 663ZM135 89L60 14V307L88 336L135 289V89ZM400 387L438 350L400 313H139L102 350L139 387H400ZM135
-14H60V-89H135V-14Z" />
<glyph unicode="@" glyph-name="at" horiz-adv-x="632" d="M573 513L545 485L498 532V611L573 686V513ZM558 700L484 625H148L111 663L148 700H558ZM531 471L493 434H232L195 471L232 508H493L531 471ZM573 163L498 238V411L545 457L573 429V163ZM135 411L88 364L60
392V611L97 649L135 611V411ZM558 149H241L204 187L241 224H484L558 149ZM228 238L190 201L153 238V429L181 457L228 411V238ZM60 307L88 336L135 289V89L97 51L60 89V307ZM148 0L111 37L148 75H536L573 37L536 0H148Z" />
<glyph unicode="A" glyph-name="A" horiz-adv-x="539" d="M465 700L391 625H148L74 700H465ZM135 289V75L60 0V307L88 336L135 289ZM60 392V686L135 611V411L88 364L60 392ZM479 307V0L405 75V289L452 336L479 307ZM405 411V611L479 686V392L452 364L405 411ZM400
387L438 350L400 313H139L102 350L139 387H400Z" />
<glyph unicode="B" glyph-name="B" horiz-adv-x="539" d="M479 89L442 51L405 89V289L452 336L479 307V89ZM479 392L452 364L405 411V611L442 649L479 611V392ZM428 663L391 625H148L74 700H391L428 663ZM428 37L391 0H74L148 75H391L428 37ZM135 411L88 364L60
392V686L135 611V411ZM135 89L60 14V307L88 336L135 289V89ZM400 387L438 350L400 313H139L102 350L139 387H400Z" />
<glyph unicode="C" glyph-name="C" horiz-adv-x="539" d="M479 700L405 625H148L111 663L148 700H479ZM135 411L88 364L60 392V611L97 649L135 611V411ZM479 0H148L111 37L148 75H405L479 0ZM135 89L97 51L60 89V307L88 336L135 289V89Z" />
<glyph unicode="D" glyph-name="D" horiz-adv-x="539" d="M479 89L442 51L405 89V289L452 336L479 307V89ZM479 392L452 364L405 411V611L442 649L479 611V392ZM428 663L391 625H148L74 700H391L428 663ZM428 37L391 0H74L148 75H391L428 37ZM135 411L88 364L60
392V686L135 611V411ZM135 89L60 14V307L88 336L135 289V89Z" />
<glyph unicode="E" glyph-name="E" horiz-adv-x="539" d="M479 700L405 625H148L74 700H479ZM479 0H74L148 75H405L479 0ZM135 289V89L60 14V307L88 336L135 289ZM60 392V686L135 611V411L88 364L60 392ZM400 387L438 350L400 313H139L102 350L139 387H400Z" />
<glyph unicode="F" glyph-name="F" horiz-adv-x="539" d="M479 700L405 625H148L74 700H479ZM135 289V89L60 14V307L88 336L135 289ZM60 392V686L135 611V411L88 364L60 392ZM400 387L438 350L400 313H139L102 350L139 387H400Z" />
<glyph unicode="G" glyph-name="G" horiz-adv-x="539" d="M465 700L391 625H148L111 663L148 700H465ZM438 350L400 313H316L279 350L316 387H400L438 350ZM135 411L88 364L60 392V611L97 649L135 611V411ZM135 89L97 51L60 89V307L88 336L135 289V89ZM391 0L428
37L391 75H148L111 37L148 0H391ZM479 89L442 51L405 89V289L452 336L479 307V89Z" />
<glyph unicode="H" glyph-name="H" horiz-adv-x="539" d="M135 289V75L60 0V307L88 336L135 289ZM60 392V700L135 625V411L88 364L60 392ZM479 307V0L405 75V289L452 336L479 307ZM405 411V625L479 700V392L452 364L405 411ZM400 387L438 350L400 313H139L102
350L139 387H400Z" />
<glyph unicode="I" glyph-name="I" horiz-adv-x="287" d="M181 392L153 364L106 411V663L143 700L181 663V392ZM181 37L143 0L106 37V289L153 336L181 307V37Z" />
<glyph unicode="J" glyph-name="J" horiz-adv-x="539" d="M465 0H74L148 75H391L465 0ZM135 196V89L60 14V215L88 242L135 196ZM479 307V14L405 89V289L452 336L479 307ZM405 411V625L479 700V392L452 364L405 411Z" />
<glyph unicode="K" glyph-name="K" horiz-adv-x="539" d="M135 289V75L60 0V307L88 336L135 289ZM60 392V700L135 625V411L88 364L60 392ZM479 307V0L405 75V289L452 336L479 307ZM391 697H444V644L206 409H153V462L391 697ZM400 387L438 350L400 313H139L102
350L139 387H400Z" />
<glyph unicode="L" glyph-name="L" horiz-adv-x="539" d="M479 0H74L148 75H405L479 0ZM135 289V89L60 14V307L88 336L135 289ZM60 392V700L135 625V411L88 364L60 392Z" />
<glyph unicode="M" glyph-name="M" horiz-adv-x="539" d="M465 700L391 625H148L74 700H465ZM135 289V75L60 0V307L88 336L135 289ZM60 392V686L135 611V411L88 364L60 392ZM479 307V0L405 75V289L452 336L479 307ZM405 411V611L479 686V392L452 364L405 411ZM232
569L269 606L307 569V402L269 364L232 402V569Z" />
<glyph unicode="N" glyph-name="N" horiz-adv-x="539" d="M135 289V75L60 0V307L88 336L135 289ZM60 392V700L135 625V411L88 364L60 392ZM479 307V0L405 75V289L452 336L479 307ZM405 411V625L479 700V392L452 364L405 411ZM152 571V625H205L387 443V390H334L152 571Z" />
<glyph unicode="O" glyph-name="O" horiz-adv-x="539" d="M479 392L452 364L405 411V611L442 649L479 611V392ZM428 663L391 625H148L111 663L148 700H391L428 663ZM479 89L442 51L405 89V289L452 336L479 307V89ZM135 411L88 364L60 392V611L97 649L135 611V411ZM60
89L97 51L135 89V289L88 336L60 307V89ZM148 0L111 37L148 75H391L428 37L391 0H148Z" />
<glyph unicode="P" glyph-name="P" horiz-adv-x="539" d="M479 392L452 364L405 411V611L442 649L479 611V392ZM428 663L391 625H148L74 700H391L428 663ZM135 411L88 364L60 392V686L135 611V411ZM135 75L60 0V307L88 336L135 289V75ZM400 387L438 350L400 313H139L102
350L139 387H400Z" />
<glyph unicode="Q" glyph-name="Q" horiz-adv-x="539" d="M479 392L452 364L405 411V611L442 649L479 611V392ZM428 663L391 625H148L111 663L148 700H391L428 663ZM479 155L442 118L405 155V289L452 336L479 307V155ZM135 411L88 364L60 392V611L97 649L135 611V411ZM60
89L97 51L135 89V289L88 336L60 307V89ZM148 0L111 37L148 75H324L361 37L324 0H148ZM338 89V142H391L479 53V0H426L338 89Z" />
<glyph unicode="R" glyph-name="R" horiz-adv-x="539" d="M479 392L452 364L405 411V611L442 649L479 611V392ZM428 663L391 625H148L74 700H391L428 663ZM135 411L88 364L60 392V686L135 611V411ZM135 75L60 0V307L88 336L135 289V75ZM186 241V294H239L479 53V0H426L186
241ZM400 387L438 350L400 313H139L102 350L139 387H400Z" />
<glyph unicode="S" glyph-name="S" horiz-adv-x="539" d="M479 663L442 625H148L111 663L148 700H442L479 663ZM479 89L442 51L405 89V289L452 336L479 307V89ZM135 411L88 364L60 392V611L97 649L135 611V411ZM97 0L60 37L97 75H391L428 37L391 0H97ZM400 387L438
350L400 313H139L102 350L139 387H400Z" />
<glyph unicode="T" glyph-name="T" horiz-adv-x="539" d="M479 700L405 625H135L60 700H479ZM307 37L269 0L232 37V252L279 299L307 271V37ZM307 354L279 327L232 373V574L269 611L307 574V354Z" />
<glyph unicode="U" glyph-name="U" horiz-adv-x="539" d="M479 89L442 51L405 89V289L452 336L479 307V89ZM60 89L97 51L135 89V289L88 336L60 307V89ZM148 0L111 37L148 75H391L428 37L391 0H148ZM60 392V700L135 625V411L88 364L60 392ZM405 411V625L479 700V392L452
364L405 411Z" />
<glyph unicode="V" glyph-name="V" horiz-adv-x="539" d="M479 392L452 364L405 411V625L479 700V392ZM446 282L201 37H148V90L393 336L452 337L446 282ZM135 411L88 364L60 392V700L135 625V411ZM60 37L97 0L135 37V289L88 336L60 307V37Z" />
<glyph unicode="W" glyph-name="W" horiz-adv-x="539" d="M479 392L452 364L405 411V625L479 700V392ZM135 411L88 364L60 392V700L135 625V411ZM479 14L405 89V289L452 336L479 307V14ZM307 130L269 93L232 130V298L269 336L307 298V130ZM465 0H74L148 75H391L465
0ZM135 89L60 14V307L88 336L135 289V89Z" />
<glyph unicode="X" glyph-name="X" horiz-adv-x="539" d="M284 364V446L436 700H479V627L322 364H284ZM218 364L60 627V700H103L255 446V364H218ZM255 336V254L103 0H60V73L218 336H255ZM321 336L479 73V0H436L284 254V336H321Z" />
<glyph unicode="Y" glyph-name="Y" horiz-adv-x="539" d="M479 392L452 364L405 411V625L479 700V392ZM60 392L88 364L135 411V625L60 700V392ZM148 0L111 37L148 75H391L428 37L391 0H148ZM479 89L442 51L405 89V289L452 336L479 307V89ZM400 387L438 350L400
313H139L102 350L139 387H400Z" />
<glyph unicode="Z" glyph-name="Z" horiz-adv-x="539" d="M479 663L442 625H135L60 700H442L479 663ZM465 0H97L60 37L97 75H391L465 0ZM334 369L268 361L265 401L427 606H479V551L334 369ZM211 336L251 340L260 274L115 93H60V145L211 336Z" />
<glyph unicode="[" glyph-name="bracketleft" horiz-adv-x="353" d="M293 700L218 625H148L74 700H293ZM293 0H74L148 75H218L293 0ZM135 289V89L60 14V307L88 336L135 289ZM60 392V686L135 611V411L88 364L60 392Z" />
<glyph unicode="\" glyph-name="backslash" horiz-adv-x="506" d="M274 446L256 382L218 393L36 707L138 680L274 446ZM470 106L442 4L261 320L270 358L334 340L470 106Z" />
<glyph unicode="]" glyph-name="bracketright" horiz-adv-x="353" d="M279 700L204 625H135L60 700H279ZM293 392L265 364L218 411V611L293 686V392ZM293 14L218 89V289L265 336L293 307V14ZM279 0H60L135 75H204L279 0Z" />
<glyph unicode="^" glyph-name="asciicircum" horiz-adv-x="492" d="M380 469L254 594V700L432 523V469H380ZM60 472V525L234 700V594L112 472H60Z" />
<glyph unicode="_" glyph-name="underscore" horiz-adv-x="445" d="M381 -112L419 -149L381 -187H64L27 -149L64 -112H381Z" />
<glyph unicode="`" glyph-name="grave" horiz-adv-x="249" d="M189 594L175 543L125 557L60 670L124 707L189 594Z" />
<glyph unicode="a" glyph-name="a" horiz-adv-x="539" d="M465 700L391 625H148L74 700H465ZM135 289V75L60 0V307L88 336L135 289ZM60 392V686L135 611V411L88 364L60 392ZM479 307V0L405 75V289L452 336L479 307ZM405 411V611L479 686V392L452 364L405 411ZM400
387L438 350L400 313H139L102 350L139 387H400Z" />
<glyph unicode="b" glyph-name="b" horiz-adv-x="539" d="M479 89L442 51L405 89V289L452 336L479 307V89ZM479 392L452 364L405 411V611L442 649L479 611V392ZM428 663L391 625H148L74 700H391L428 663ZM428 37L391 0H74L148 75H391L428 37ZM135 411L88 364L60
392V686L135 611V411ZM135 89L60 14V307L88 336L135 289V89ZM400 387L438 350L400 313H139L102 350L139 387H400Z" />
<glyph unicode="c" glyph-name="c" horiz-adv-x="539" d="M479 700L405 625H148L111 663L148 700H479ZM135 411L88 364L60 392V611L97 649L135 611V411ZM479 0H148L111 37L148 75H405L479 0ZM135 89L97 51L60 89V307L88 336L135 289V89Z" />
<glyph unicode="d" glyph-name="d" horiz-adv-x="539" d="M479 89L442 51L405 89V289L452 336L479 307V89ZM479 392L452 364L405 411V611L442 649L479 611V392ZM428 663L391 625H148L74 700H391L428 663ZM428 37L391 0H74L148 75H391L428 37ZM135 411L88 364L60
392V686L135 611V411ZM135 89L60 14V307L88 336L135 289V89Z" />
<glyph unicode="e" glyph-name="e" horiz-adv-x="539" d="M479 700L405 625H148L74 700H479ZM479 0H74L148 75H405L479 0ZM135 289V89L60 14V307L88 336L135 289ZM60 392V686L135 611V411L88 364L60 392ZM400 387L438 350L400 313H139L102 350L139 387H400Z" />
<glyph unicode="f" glyph-name="f" horiz-adv-x="539" d="M479 700L405 625H148L74 700H479ZM135 289V89L60 14V307L88 336L135 289ZM60 392V686L135 611V411L88 364L60 392ZM400 387L438 350L400 313H139L102 350L139 387H400Z" />
<glyph unicode="g" glyph-name="g" horiz-adv-x="539" d="M465 700L391 625H148L111 663L148 700H465ZM438 350L400 313H316L279 350L316 387H400L438 350ZM135 411L88 364L60 392V611L97 649L135 611V411ZM135 89L97 51L60 89V307L88 336L135 289V89ZM391 0L428
37L391 75H148L111 37L148 0H391ZM479 89L442 51L405 89V289L452 336L479 307V89Z" />
<glyph unicode="h" glyph-name="h" horiz-adv-x="539" d="M135 289V75L60 0V307L88 336L135 289ZM60 392V700L135 625V411L88 364L60 392ZM479 307V0L405 75V289L452 336L479 307ZM405 411V625L479 700V392L452 364L405 411ZM400 387L438 350L400 313H139L102
350L139 387H400Z" />
<glyph unicode="i" glyph-name="i" horiz-adv-x="287" d="M181 392L153 364L106 411V663L143 700L181 663V392ZM181 37L143 0L106 37V289L153 336L181 307V37Z" />
<glyph unicode="j" glyph-name="j" horiz-adv-x="539" d="M465 0H74L148 75H391L465 0ZM135 196V89L60 14V215L88 242L135 196ZM479 307V14L405 89V289L452 336L479 307ZM405 411V625L479 700V392L452 364L405 411Z" />
<glyph unicode="k" glyph-name="k" horiz-adv-x="539" d="M135 289V75L60 0V307L88 336L135 289ZM60 392V700L135 625V411L88 364L60 392ZM479 307V0L405 75V289L452 336L479 307ZM391 697H444V644L206 409H153V462L391 697ZM400 387L438 350L400 313H139L102
350L139 387H400Z" />
<glyph unicode="l" glyph-name="l" horiz-adv-x="539" d="M479 0H74L148 75H405L479 0ZM135 289V89L60 14V307L88 336L135 289ZM60 392V700L135 625V411L88 364L60 392Z" />
<glyph unicode="m" glyph-name="m" horiz-adv-x="539" d="M465 700L391 625H148L74 700H465ZM135 289V75L60 0V307L88 336L135 289ZM60 392V686L135 611V411L88 364L60 392ZM479 307V0L405 75V289L452 336L479 307ZM405 411V611L479 686V392L452 364L405 411ZM232
569L269 606L307 569V402L269 364L232 402V569Z" />
<glyph unicode="n" glyph-name="n" horiz-adv-x="539" d="M135 289V75L60 0V307L88 336L135 289ZM60 392V700L135 625V411L88 364L60 392ZM479 307V0L405 75V289L452 336L479 307ZM405 411V625L479 700V392L452 364L405 411ZM152 571V625H205L387 443V390H334L152 571Z" />
<glyph unicode="o" glyph-name="o" horiz-adv-x="539" d="M479 392L452 364L405 411V611L442 649L479 611V392ZM428 663L391 625H148L111 663L148 700H391L428 663ZM479 89L442 51L405 89V289L452 336L479 307V89ZM135 411L88 364L60 392V611L97 649L135 611V411ZM60
89L97 51L135 89V289L88 336L60 307V89ZM148 0L111 37L148 75H391L428 37L391 0H148Z" />
<glyph unicode="p" glyph-name="p" horiz-adv-x="539" d="M479 392L452 364L405 411V611L442 649L479 611V392ZM428 663L391 625H148L74 700H391L428 663ZM135 411L88 364L60 392V686L135 611V411ZM135 75L60 0V307L88 336L135 289V75ZM400 387L438 350L400 313H139L102
350L139 387H400Z" />
<glyph unicode="q" glyph-name="q" horiz-adv-x="539" d="M479 392L452 364L405 411V611L442 649L479 611V392ZM428 663L391 625H148L111 663L148 700H391L428 663ZM479 155L442 118L405 155V289L452 336L479 307V155ZM135 411L88 364L60 392V611L97 649L135 611V411ZM60
89L97 51L135 89V289L88 336L60 307V89ZM148 0L111 37L148 75H324L361 37L324 0H148ZM338 89V142H391L479 53V0H426L338 89Z" />
<glyph unicode="r" glyph-name="r" horiz-adv-x="539" d="M479 392L452 364L405 411V611L442 649L479 611V392ZM428 663L391 625H148L74 700H391L428 663ZM135 411L88 364L60 392V686L135 611V411ZM135 75L60 0V307L88 336L135 289V75ZM186 241V294H239L479 53V0H426L186
241ZM400 387L438 350L400 313H139L102 350L139 387H400Z" />
<glyph unicode="s" glyph-name="s" horiz-adv-x="539" d="M479 663L442 625H148L111 663L148 700H442L479 663ZM479 89L442 51L405 89V289L452 336L479 307V89ZM135 411L88 364L60 392V611L97 649L135 611V411ZM97 0L60 37L97 75H391L428 37L391 0H97ZM400 387L438
350L400 313H139L102 350L139 387H400Z" />
<glyph unicode="t" glyph-name="t" horiz-adv-x="539" d="M479 700L405 625H135L60 700H479ZM307 37L269 0L232 37V252L279 299L307 271V37ZM307 354L279 327L232 373V574L269 611L307 574V354Z" />
<glyph unicode="u" glyph-name="u" horiz-adv-x="539" d="M479 89L442 51L405 89V289L452 336L479 307V89ZM60 89L97 51L135 89V289L88 336L60 307V89ZM148 0L111 37L148 75H391L428 37L391 0H148ZM60 392V700L135 625V411L88 364L60 392ZM405 411V625L479 700V392L452
364L405 411Z" />
<glyph unicode="v" glyph-name="v" horiz-adv-x="539" d="M479 392L452 364L405 411V625L479 700V392ZM446 282L201 37H148V90L393 336L452 337L446 282ZM135 411L88 364L60 392V700L135 625V411ZM60 37L97 0L135 37V289L88 336L60 307V37Z" />
<glyph unicode="w" glyph-name="w" horiz-adv-x="539" d="M479 392L452 364L405 411V625L479 700V392ZM135 411L88 364L60 392V700L135 625V411ZM479 14L405 89V289L452 336L479 307V14ZM307 130L269 93L232 130V298L269 336L307 298V130ZM465 0H74L148 75H391L465
0ZM135 89L60 14V307L88 336L135 289V89Z" />
<glyph unicode="x" glyph-name="x" horiz-adv-x="539" d="M284 364V446L436 700H479V627L322 364H284ZM218 364L60 627V700H103L255 446V364H218ZM255 336V254L103 0H60V73L218 336H255ZM321 336L479 73V0H436L284 254V336H321Z" />
<glyph unicode="y" glyph-name="y" horiz-adv-x="539" d="M479 392L452 364L405 411V625L479 700V392ZM60 392L88 364L135 411V625L60 700V392ZM148 0L111 37L148 75H391L428 37L391 0H148ZM479 89L442 51L405 89V289L452 336L479 307V89ZM400 387L438 350L400
313H139L102 350L139 387H400Z" />
<glyph unicode="z" glyph-name="z" horiz-adv-x="539" d="M479 663L442 625H135L60 700H442L479 663ZM465 0H97L60 37L97 75H391L465 0ZM334 369L268 361L265 401L427 606H479V551L334 369ZM211 336L251 340L260 274L115 93H60V145L211 336Z" />
<glyph unicode="{" glyph-name="braceleft" horiz-adv-x="418" d="M358 700L284 625H237L200 663L237 700H358ZM223 392L195 364L148 411V611L186 649L223 611V392ZM181 350L143 313H74L36 350L74 387H143L181 350ZM223 89L186 51L148 89V289L195 336L223 307V89ZM358
0H237L200 37L237 75H284L358 0Z" />
<glyph unicode="|" glyph-name="bar" horiz-adv-x="274" d="M101 -187V700H174V-187H101Z" />
<glyph unicode="}" glyph-name="braceright" horiz-adv-x="418" d="M218 663L181 625H135L60 700H181L218 663ZM269 411L223 364L195 392V611L232 649L269 611V411ZM269 89L232 51L195 89V307L223 336L269 289V89ZM381 350L344 313H274L237 350L274 387H344L381
350ZM218 37L181 0H60L135 75H181L218 37Z" />
<glyph unicode="~" glyph-name="asciitilde" horiz-adv-x="492" d="M60 260V355Q80 378 102 388T149 399Q190 399 254 371Q294 354 326 354Q354 354 379 368T432 413V314Q400 271 323 271Q305 271 290 273T259 279T207 302Q180 315 161 315Q139 315 116 303T60 260Z" />
</font>
</defs>
</svg>
